<svg id="Capa_1" enable-background="new 0 0 509.117 509.117" height="512" viewBox="0 0 509.117 509.117" width="512" xmlns="http://www.w3.org/2000/svg"><g><path d="m348.085 72.314 44.359 44.359 27.115 2.886-5.902-24.098-52.036-52.037-16.014 2.834z" fill="#ffd674"/><path d="m392.444 116.673 44.363 44.362 26.246 2.386 2.64-15.925-52.036-52.035z" fill="#ff9f50"/><path d="m43.424 361.621 52.036 52.036 21.766-1.764-.553-19.449-44.362-44.362-23.367-3.735z" fill="#ffd674"/><path d="m161.035 436.807-44.362-44.363-21.213 21.213 52.036 52.036 17.896-6.845z" fill="#ff9f50"/><g fill="#ffd674"><path d="m234.343 170.702 52.036 52.036 21.805-1.804-.592-19.409-44.363-44.361-19.277.723z"/><path d="m190.92 212.133 53.032 53.032 20.482-.481.731-20.732-53.032-53.032-20.608-.607z"/><path d="m157.169 263.234 44.356 44.358 21.659-1.658-.446-19.555-52.036-52.037-15.285 1.283z"/></g><path d="m169.892 339.225c-24.852-36.814-20.284-85.78 11.299-117.363l40.67-40.672c31.583-31.583 80.552-36.15 117.364-11.297l21.209-1.209c.228-12.356.137-7.411.377-20.378-24.852-36.813-20.284-85.78 11.298-117.363l9.729-9.729-21.213-21.214-9.73 9.729c-30.617 30.619-43.225 75.643-31.749 118.498-42.756-11.448-87.809 1.061-118.499 31.75l-40.67 40.672c-30.621 30.621-43.224 75.642-31.751 118.497-42.815-11.464-87.851 1.103-118.497 31.75l-9.729 9.729 21.213 21.213 9.729-9.73c31.583-31.582 80.551-36.147 117.363-11.297l20.628-.628z" fill="#ff7da7"/><path d="m350.019 266.378 1.935-20.49-44.362-44.363-21.213 21.213 52.036 52.037z" fill="#ff9f50"/><path d="m318.197 296.984-53.032-53.032-21.213 21.213 53.032 53.032 22.357-2.355z" fill="#ff9f50"/><path d="m266.378 350.019 8.396-11.603-52.036-52.037-21.213 21.213 44.357 44.356z" fill="#ff9f50"/><path d="m478.175 137.008c-31.583 31.584-80.549 36.15-117.364 11.299l-21.586 21.586h.001c24.852 36.814 20.284 85.781-11.299 117.364l-40.67 40.67c-31.584 31.583-80.553 36.149-117.364 11.298l-21.587 21.587h.001c24.852 36.814 20.284 85.78-11.298 117.363l-9.729 9.729 21.213 21.213 9.729-9.73c30.564-30.563 43.245-75.569 31.747-118.509 43.28 11.592 88.18-1.418 118.501-31.739l40.67-40.67c30.619-30.62 43.226-75.644 31.75-118.499 42.872 11.48 87.894-1.146 118.498-31.749l9.729-9.729-21.213-21.214z" fill="#9a9dec"/></g></svg>