<svg height="512pt" viewBox="-113 0 512 512" width="512pt" xmlns="http://www.w3.org/2000/svg"><path d="m75.648438 15v46.917969l10.007812 16.414062-10.007812 13.585938v31.914062l10.007812 14.5-10.007812 15.5v31.917969l10.007812 15.953125-10.007812 14.042969v27.523437c-31.371094 16.738281-55.746094 44.851563-67.648438 78.828125l154.742188 20.015625-20.015626-327.113281zm0 0" fill="#bdfdff"/><path d="m277.449219 322.101562c-11.898438-33.980468-36.273438-62.09375-67.648438-78.832031v-228.269531h-67.074219v46.917969h-67.078124v30h67.078124v31.914062h-67.078124v30h67.078124v31.917969h-67.078124v30h67.078124v126.367188zm0 0" fill="#7ed8f6"/><path d="m241.226562 0h-98.5l-10.007812 15 10.007812 15h98.5zm0 0" fill="#0fa9dd"/><path d="m44.222656 0h98.503906v30h-98.503906zm0 0" fill="#7ed8f6"/><path d="m285.453125 369.273438c0-16.535157-2.828125-32.40625-8-47.171876h-134.726563l-20.015624 76.894532 20.015624 113.003906c78.824219 0 142.726563-63.898438 142.726563-142.726562zm0 0" fill="#424ede"/><path d="m8 322.101562c-5.171875 14.765626-8 30.636719-8 47.171876 0 78.828124 63.902344 142.726562 142.726562 142.726562v-189.898438zm0 0" fill="#4895ff"/></svg>